<svg id="Layer_1" data-name="Layer 1" xmlns="http://www.w3.org/2000/svg" viewBox="0 0 300 560"><defs><style>.cls-1{fill:#fff;}</style></defs><title>default-she</title><path class="cls-1" d="M300,401v-7c-5-2.09-10.08-4.2-15.13-6.25-5.58-2.26-11-4.64-14.61-9.89-9.74-14.06-19.66-28-29.39-42.06a7.19,7.19,0,0,1-1.36-5c1.15-5,2.09-10.22,4.47-14.63a185.55,185.55,0,0,0,21.46-65.81c.61-4.87,1.83-9.31,6.32-12.28,1.42-.94,2.34-2.78,3.23-4.35a49.32,49.32,0,0,0,6.17-25.85c-.53-21.9-1.41-43.81-3.11-65.64-.87-11.16-2.28-22.73-6.15-33.11a201.45,201.45,0,0,0-39.45-64.7c-16.17-17.95-37.61-23.5-60.31-25.62-13-1.21-26.22-1.33-39.34-1.38-5.55,0-11.5.4-16.59,2.37-14.74,5.7-27.42,15-38.66,25.93-17.06,16.65-24.95,37.6-26.85,61-.83,10.25-1.82,20.51-2,30.77-.28,12.59.23,25.19.25,37.78,0,2-.16,4.43-1.26,5.9-7.77,10.32-7.65,21.15-2.75,32.46,6.52,15.07,7.86,31.15,8.39,47.2.35,10.39-1.73,20.87-1.44,31.27.38,13.89,3.8,27,15,36.69,3.84,3.33,7.7,6.63,11.76,10.11C69.17,347.4,61.27,354.76,53,361.73A24.51,24.51,0,0,1,44,366.49c-4.6,1.25-9.59,1.09-14.18,2.36-10,2.77-19.88,6.07-29.8,9.15v7c7.58-2.24,15.11-4.71,22.76-6.66,6.78-1.72,13.7-2.87,20.55-4.26l.68,1.27c-2.13,2-4.24,4.06-6.39,6a221.73,221.73,0,0,0-32,37.32c-.95,1.39-3.69,1.55-5.6,2.28v4c13.55,2.13,27.05,3.48,40.68.08,6.06-1.5,12.41-1.85,18.63-2.71,3.18-.44,4.64.8,4.39,4.16-.81,10.9-1.48,21.81-2.27,32.72-.49,6.77-1.27,13.51-1.62,20.29C59,495,58.44,510.37,57.65,525.78c-.5,9.76-1.25,19.5-1.82,29.26a48.55,48.55,0,0,0,.17,5h4c.92-20.16,1.83-40.32,2.76-60.69,7,4,13,8.05,19.51,11.06,14.19,6.55,29.3,7.65,44.69,6.13l30-3c-4.2,10-8.52,20.17-12.71,30.37-2.18,5.33-4.14,10.76-6.2,16.14h4c6.63-15.92,13.11-31.9,19.94-47.74,8.27-19.18,16.83-38.25,25.28-57.36,1.34-3,2.73-6,4.19-9,2.4-4.93,10.67-9.24,16.08-7.8,5.89,1.57,11.92,3.2,17.33,5.93,13,6.57,26.47,6.46,40.23,3.8,8.87-1.71,17.71-3.61,27.79-5.67-2.55,7.05-4.6,13.25-7,19.31q-18.22,45.76-36.57,91.47c-.92,2.3-1.51,4.72-2.26,7.09h4q21.12-53.36,42.22-106.72c2-5.06,3.71-10.24,5.92-16.39l-27.95,5.38c1-16.95,2-33.38,3-50ZM263.47,232.37c-.49,3-3.07,5.6-3.75,8.6-2.89,12.75-4.51,25.85-8.28,38.32-6.78,22.43-18.1,42.09-36.66,57.49-12.85,10.67-26.36,18.83-43,21.49-5.28.84-10.2.39-14.94-2.22-13.44-7.42-26-16.05-36.81-27-4.86-4.93-9.23-10.34-14-15.38-4.15-4.39-9.49-8-12.63-13-10.69-17-18.71-35.11-20.22-55.53-1.25-17-2.59-34.06-3.6-47.23.69-12.9.71-21.91,1.86-30.77.52-4.07,2.9-8.06,5.06-11.72a180.4,180.4,0,0,1,11-16.64C96,127.56,98.87,114.68,99.31,101c.25-7.76.8-7.54,8.51-7.16a135.07,135.07,0,0,0,27.79-1.11c19.76-3.17,39.32-7.59,59-11,5.77-1,11.55-.43,16.11,4.89A382.93,382.93,0,0,1,253.62,147a131.38,131.38,0,0,1,7.93,16.05,31.7,31.7,0,0,1,2,11c.21,15.26.09,30.52.09,45.78C263.61,224.07,264.13,228.31,263.47,232.37ZM101.31,89.11c2-6.24,3.79-12,5.67-18,14.27,4.24,28.58,2.35,42.85,1.16,12.54-1,24.31,2.13,37.32,6.38C158.31,85.13,130.74,92.19,101.31,89.11Zm34.42-63.78h16.83l.77-.24.92.24h-1.69L120.42,35.4C123.82,26.08,124.89,25.33,135.73,25.33Zm2.57,8.11c11.84-2.32,23.76-5.64,35.68-5.77,21.4-.22,40.22,7.41,54.7,24a204.08,204.08,0,0,1,35.59,59c3,7.55,4.09,16,5.09,24.19,1.82,14.79,2.92,29.67,4.3,44.51.07.75,0,1.52,0,2.27-3.84-9.07-7.18-18.27-11.53-27-11.94-23.85-27.1-45.59-44.35-65.9-1.83-2.15-3.7-4.26-5.47-6.46-3.37-4.17-7.68-5.22-13-5.89-9.14-1.15-18-4.85-27.1-5.92-11-1.29-22.11-1-33.18-1.3-8.43-.23-16.88,0-25.27-.6-4.39-.3-5.89-2.7-4.1-7.58C114.78,47,123,36.44,138.3,33.44ZM56.18,138.92c.22-10.42,1.36-20.83,2.15-31.24C60,86.31,67,67.05,82.43,51.86c10.66-10.46,22.64-19.46,37-25.13-4.76,11.78-9.85,23.21-14,35a295,295,0,0,0-9,31c-1.58,6.72-2,13.74-2.56,20.66-.78,9-5.34,16.28-10,23.57a79.55,79.55,0,0,1-5.77,8.12c-9.92,12.09-12.87,26.22-12.45,41.4.05,2.13,0,4.26,0,6.39l-.92.07c-2.7-5.76-7.05-11.32-7.74-17.31C55.67,163.5,55.92,151.16,56.18,138.92Zm-5.53,68.55c-2.51-6.87-2.12-17.4,4.59-22.29.31,0,.81,0,.91.18,5,8.83,10.65,17.22,10.69,28.2,0,11.87,1.41,23.72,2.23,36-6.21-6.68-10.59-14.06-12.28-23.25C55.61,219.85,52.91,213.67,50.65,207.47ZM8.9,421.37c22.18-32.93,53-56.12,80.81-81.89-5.81-5.37-11.35-10.71-17.12-15.78-9.77-8.6-12.92-20-13.11-32.24-.15-9.92,1.23-19.85,1.55-29.79.14-4.77-.61-9.57-1-15.46,7.09,6.31,11.34,12.79,13.78,21.17,5.29,18.16,13.39,34.87,27,48.68,6.87,7,6.3,16.42,2.68,24.7-3.34,7.68-8.31,14.7-13,21.74-14,21.13-19.83,32-26.33,56.53C46,416.56,28.35,427.65,8.9,421.37Zm172.45,36.5c-6.8,14-12.75,28.47-18.63,42.91-2.18,5.36-5.38,7.87-11.06,9-14.63,3-29.38,3.5-44.14,2.73a65,65,0,0,1-40.33-16.22c-3.47-3-4.18-6.42-3.82-10.64.76-9.08,1.17-18.19,2-27.27,1.32-14.67,1.93-29.49,4.54-43.94,3.22-17.76,13.09-32.86,22.7-47.84,4-6.15,8.79-11.88,11.75-18.46,3.12-6.91,4.47-14.62,6.56-21.86,3.83,3.43,8.37,8.2,13.59,12,10.41,7.63,20.84,15.35,31.94,21.87,8.05,4.73,17.16,2.09,25.73-.12,13-3.35,24-10.37,33.88-19.21,5.52-4.94,10.84-10.11,17-15.88-2.42,8.06-4.38,15.49-6.86,22.75A972.31,972.31,0,0,1,181.35,457.87Zm87.09-33.62c-.26,5-.63,9.93-.73,14.9,0,2.71-.83,4-3.77,4.71-13.66,3.5-26.61,1.9-39.17-4.27a91.69,91.69,0,0,0-10.59-4.3c-5.93-2.05-11.89-2.66-16.84.27l36.75-95.74c5.81,8.22,11.36,16.22,17.07,24.1,5.83,8.05,11.83,16,17.72,24a4.79,4.79,0,0,1,1.29,2.54C269.67,401.72,269,413,268.44,424.25Z"/></svg>