<svg id="Layer_1" data-name="Layer 1" xmlns="http://www.w3.org/2000/svg" viewBox="0 0 300 560"><defs><style>.cls-1{fill:#fff;}</style></defs><title>default-he</title><path class="cls-1" d="M46,560c1-7.35,1.9-14.73,3-22.06,3.48-22.25,7.32-44.45,10.52-66.74,2.68-18.68,4.76-37.45,6.91-56.2,1.84-16,2.51-32.12,5.42-47.87,2-10.94,6.94-21.35,10.73-31.94.34-1,2.19-2.25,2.85-2a4.66,4.66,0,0,1,2.75,2.93,146,146,0,0,1,2,18.25c.32,16.35,6.24,30.72,14.67,44.34,7.41,12,14.76,24,22.47,36.54,6.66-4.81,12.87-9.13,18.91-13.66,18.71-14,37.6-27.84,56-42.34,12.43-9.82,22.23-21.68,25.54-38.05a159.31,159.31,0,0,1,8-25.65c1.43-3.7,5.67-6.33,3.81-10.53-7.52,10.14-15.07,20.91-23.23,31.19-11.13,14-23.36,26.89-40.88,33.09-8.93,3.16-18.23,3.71-27.54,3-12.19-.9-24.41-2.89-34-11.12-6.72-5.79-12.29-13-18.1-19.76-3.54-4.12-6.57-8.69-10.11-13.43-2.61,2.16-4.94,4.84-7.87,6.41-17.29,9.27-35.1,17.4-54.62,20.66C15.57,356.36,7.74,356.4,0,357v-7c10.67-1.42,21.79-1.41,31.89-4.61,14.47-4.57,28.35-11.18,42.19-17.56,5.55-2.56,5.62-5,3-10.64C73.67,309.81,70.19,302.44,67,295c-1.44-3.38-3.45-4.7-7.19-4.65-9.08.14-11.15-1.91-14.54-10.52-4-10.19-8.47-20.21-13-30.19a141,141,0,0,1-11.56-40.54c-1.37-10.68,2-16.35,11.38-20.48a4.57,4.57,0,0,0,2.19-3.53c-1.78-28.82-1.09-57.43,6.6-85.5a72.15,72.15,0,0,1,30-42A252.18,252.18,0,0,1,126.4,29.76c14.83-5.39,29.84-5.6,45-2.85,9.13,1.66,18.21,3.66,27.22,5.83,5.55,1.34,11,3.08,12.13,10.15.17,1.09,2.59,2,4.08,2.68,2.13,1,4.89,1.35,6.49,2.89C241.49,68,257,90.25,260.71,118.77c1.38,10.61.88,21.48.86,32.22,0,6.63-.93,13.25-1,19.88,0,1.24,1.89,3.27,3.26,3.63,6,1.58,10.12,5.3,11.81,11,4.14,14,4.54,28.2-.91,42-3.84,9.72-8.17,19.25-12.45,28.79-1.07,2.39-2.29,5.35-4.33,6.57-8.31,5-8.47,13.35-9.38,21.28-.81,7.08-.26,14.33-1.3,21.36-1.65,11.24,3.72,19.58,11,26.41,12.58,11.73,26,22.57,39.06,33.78.88.75,1.75,1.53,2.62,2.29v8c-3.38-2.2-7-4.11-10.11-6.65q-17-13.82-33.59-28.05c-2.73-2.34-4.81-5.44-7.1-8.08-1.14,9.1-1,18.6-3.74,27.15-3.91,12.05-9.43,23.69-15.3,35-9,17.37-19,34.25-28.48,51.39-11,19.89-22.58,39.51-32.73,59.84-7.83,15.71-13.83,32.32-20.66,48.52-.7,1.67-1.52,3.28-2.29,4.91h-3l17.37-47.28c-3.37,3.65-7,7.58-11.28,12.26L138.63,504.2c-5.59,5.83-5.85,5.92-4.74,9.42,4.85,15.29,3.55,30.82,2.11,46.38h-3c.2-5.44.37-10.87.6-16.31a90,90,0,0,0-3.88-30.39c-2.33-7.6-6.89-13.27-14.1-16.21-3-1.21-7.27-3.62-10.07.27C98.42,507.27,90.89,517,85,527.67,79.36,537.91,75.6,549.18,71,560H68c1.52-4.49,2.87-9,4.57-13.45,6.41-16.62,13.42-33,25.56-46.37,3-3.33,3.76-6.75,3.5-10.89-.44-6.78-.69-13.58-1-20.38-.07-1.41-.17-2.83-.31-5.13l-31,29.2c-1.46-11.44-2.72-21.26-3.9-30.52C59.94,494.71,54.47,527.36,49,560ZM245.7,232.82c-.36-17.18.6-29.73-5.76-42.16-10.7-20.88-11.21-44.46-14.33-67.24-1.62-11.8-4.09-23.21-12.17-32.62-3.67-4.27-7.91-5.32-12.71-2.36S191.1,95,186,97.81c-6.35,3.5-12.69,8.1-19.56,9.36A353.72,353.72,0,0,1,117.22,113c-9.9.39-20-2.58-29.9-4.33-8.66-1.52-10.85-.54-14.79,7.06-7.06,13.63-6.84,28.28-5.86,42.92,1.23,18.35,2,36.48-7.48,53.35-1.39,2.45-1.57,6.12-1.06,9,2.53,14.2,5.56,28.3,8.26,42.47,5,26.26,14.8,50.57,30.19,72.42,5.32,7.56,11.25,15,18.11,21.09,8.1,7.23,18.67,9.32,29.4,10.95,22.08,3.33,40.45-3.78,55.61-19.16,8.93-9.07,16.72-19.3,24.6-29.34,7.08-9.05,14.15-18.59,16-30.11C243.45,269.21,247.26,249.05,245.7,232.82ZM55.07,210.41c.66-.91,1.49-1.92,2.17-3a19.71,19.71,0,0,0,1.27-2.71c6.2-14.91,5.56-30.47,4.44-46.1-1.09-15.19-1.06-30.27,5.94-44.4,4.47-9,8.77-11.64,18.35-9.25,15.29,3.81,30.65,5.78,46.31,3.59,11.95-1.67,24.31-2.49,35.58-6.34,9.83-3.36,18.44-10.34,27.49-15.86,9.37-5.72,15.35-4.24,22,4.73,8.41,11.39,9.65,24.82,11.79,38.06,2.4,14.86,4.34,29.81,7.36,44.55,1.5,7.28,5,14.16,7.58,21.22,3.3-7.69,7.8-14.21,7.85-22.68.08-12.4,2.58-24.84,2.15-37.19-.57-16.34-5.08-32-12.23-46.88-6.26-13-16.51-22.79-26.22-33a5.79,5.79,0,0,0-4-1.63c-5.1.2-8-2.61-8.92-7-.86-4-3.25-5.55-6.71-6.34C189.22,38.29,181.2,36,173,34.77c-11.42-1.73-22.83-4-34.53-.7A215.11,215.11,0,0,0,73.57,64.91,59.75,59.75,0,0,0,51.74,91.54C44.91,108,42.36,125.42,41.54,143c-.67,14.3-.28,28.65,0,43,.06,3.52.59,7.54,2.37,10.42C47,201.41,51.21,205.7,55.07,210.41Zm184.4,105.27c-3.46,11-7.24,21.17-9.77,31.62a55.46,55.46,0,0,1-20.45,31.1C181.51,400,153.2,420.93,124.9,441.83c-4.15,3.06-5,5.46-3,10.15,5.77,13.42,11,27.08,16.57,40.58,3.46,8.35,7.22,16.57,11.37,26,7.32-8.17,14.37-14.67,19.7-22.36,6-8.69,10.54-18.43,15.69-27.73,15.45-27.9,31.11-55.68,46.19-83.78,4.43-8.26,8.49-17.13,10.43-26.21,2.79-13.06,6.71-26.75-2-39.48C239.43,318.44,239.64,317.41,239.47,315.68ZM72,484.71a18.33,18.33,0,0,0,2.59-1.51Q97.9,461,121.18,438.76c2-1.86,2-3.21.54-5.47-6.93-10.94-13.56-22.06-20.47-33-8.58-13.57-14.3-28-14.73-44.3-.14-5.19-.92-10.37-1.4-15.55-3.64,7.24-7,14.57-8.53,22.26-2.17,11-3.07,22.3-4.36,33.48-1.69,14.64-3.88,29.26-4.59,43.95-.45,9.17,1.37,18.45,2.29,27.67C70.47,473.17,71.25,478.52,72,484.71ZM65.89,276.18l-1-.79c-.09-.82-.12-1.66-.29-2.47-3.41-17.06-6.67-34.14-10.33-51.14a40.14,40.14,0,0,0-13.64-22.64c-2.1-1.75-6.38-3-8.55-2-2,.9-3.4,5.08-3.47,7.85-.33,13.56,4.28,26.11,9.24,38.43,4.57,11.37,10,22.42,14.53,33.8,1.6,4,4.2,6.81,7.89,5.86C62.55,282.51,64,278.6,65.89,276.18ZM249.4,261.06c2-2.38,4-3.92,4.93-5.95,5.11-11.5,10.37-23,14.79-34.75,3.92-10.44,3.14-21.22-.32-31.77-1.71-5.21-5.8-7.85-8.64-5.3-5.59,5-11.13,10.18-10.84,18.9.34,10.48.08,21,.08,31.48ZM116.27,448.23c-6,6.07-13.36,9.67-12,19.42,1,6.7.62,13.56,1.27,20.31.13,1.33,2.11,3.45,3.34,3.53,8.25.51,14.41,4.47,19.37,10.71a30.42,30.42,0,0,1,2.18,3.55c5.13-3.6,6.78-6.59,4.42-11.7-3.67-8-6.4-16.34-9.67-24.49C122.45,462.71,119.51,455.94,116.27,448.23Z"/></svg>