<svg id="Layer_1" data-name="Layer 1" xmlns="http://www.w3.org/2000/svg" xmlns:xlink="http://www.w3.org/1999/xlink" viewBox="0 0 128 39.83"><defs><style>.cls-1{fill:#fff;}.cls-2{fill:url(#linear-gradient);}.cls-3{fill:url(#linear-gradient-2);}</style><linearGradient id="linear-gradient" x1="7.07" y1="22.83" x2="41.88" y2="22.83" gradientUnits="userSpaceOnUse"><stop offset="0.15" stop-color="#ff3f4e"/><stop offset="1" stop-color="#c03"/></linearGradient><linearGradient id="linear-gradient-2" x1="51.05" y1="11.3" x2="128" y2="11.3" xlink:href="#linear-gradient"/></defs><title>logotypeForm_dark</title><path id="DarkStyle_logoG" class="cls-1" d="M0,39.83V0H36l-4,4.1H6.55A1.23,1.23,0,0,0,5.32,5.32V39.83Z"/><path id="DarkStyle_logoR" class="cls-2" d="M41.88,15.48A10,10,0,0,0,31.82,5.84H7.68a.61.61,0,0,0-.61.61V9.93H31.89a5.84,5.84,0,0,1,5.88,5.33,5.73,5.73,0,0,1-5.72,6.14H13a.61.61,0,0,1-.61-.61v-8.2H7.07V39.83h5.32V25.5H32.05a9.84,9.84,0,0,0,9.83-10Z"/><path id="DarkStyle_textR" class="cls-3" d="M57,13.17h0a2.93,2.93,0,0,0,1.34-1.1,3.05,3.05,0,0,0,.48-1.73,3.08,3.08,0,0,0-.48-1.73A3,3,0,0,0,57,7.49a5,5,0,0,0-2.07-.39H51.05v9h2.09V13.55H55l1.74,2.51H59ZM53.14,8.79h1.67a2.23,2.23,0,0,1,1.44.4,1.42,1.42,0,0,1,.48,1.15,1.44,1.44,0,0,1-.48,1.15,2.23,2.23,0,0,1-1.44.41H53.14Zm12.35,1A3.69,3.69,0,0,0,63,9.07a6.3,6.3,0,0,0-1.61.21,4.15,4.15,0,0,0-1.36.62l.7,1.39a3.44,3.44,0,0,1,.92-.46,3.4,3.4,0,0,1,1.08-.18A1.72,1.72,0,0,1,64,11a1.27,1.27,0,0,1,.39,1v0H62.79a4.85,4.85,0,0,0-1.72.25,1.83,1.83,0,0,0-1.25,1.79,1.83,1.83,0,0,0,.31,1.06,2.12,2.12,0,0,0,.89.75,3.07,3.07,0,0,0,1.37.28,2.84,2.84,0,0,0,1.48-.35,1.81,1.81,0,0,0,.62-.61v.86h1.87V12.13A2.9,2.9,0,0,0,65.49,9.81Zm-1.7,4.78a1.86,1.86,0,0,1-.91.23,1.35,1.35,0,0,1-.82-.23.72.72,0,0,1-.3-.61.73.73,0,0,1,.26-.57,1.48,1.48,0,0,1,1-.23h1.37v.7A1.27,1.27,0,0,1,63.79,14.59Zm8.61-.3a1.78,1.78,0,0,1-.88.23,1.83,1.83,0,0,1-.9-.23,1.6,1.6,0,0,1-.65-.64,2,2,0,0,1-.25-1,1.93,1.93,0,0,1,.25-1,1.67,1.67,0,0,1,.65-.64,1.83,1.83,0,0,1,.9-.23,1.71,1.71,0,0,1,1.55.94l1.54-.85a2.66,2.66,0,0,0-1.17-1.29,3.84,3.84,0,0,0-1.9-.45,4.13,4.13,0,0,0-2,.46,3.54,3.54,0,0,0-1.35,1.25,3.31,3.31,0,0,0-.5,1.83,3.31,3.31,0,0,0,.5,1.83,3.35,3.35,0,0,0,1.35,1.26,4.13,4.13,0,0,0,2,.46,3.74,3.74,0,0,0,1.9-.46,2.69,2.69,0,0,0,1.17-1.28l-1.54-.84A1.71,1.71,0,0,1,72.4,14.29Zm1.45-7.85L72.16,8.29H70.4L68.71,6.44h1.46l1.12,1,1.11-1Zm8.87,2.73v6.89H80.83v-.83a2.22,2.22,0,0,1-.68.57,3,3,0,0,1-1.46.36,3.38,3.38,0,0,1-1.53-.33,2.35,2.35,0,0,1-1-1,3.62,3.62,0,0,1-.37-1.74V9.17h2v3.58A1.88,1.88,0,0,0,78.11,14a1.36,1.36,0,0,0,1,.4,1.69,1.69,0,0,0,.82-.2,1.49,1.49,0,0,0,.57-.62,2.2,2.2,0,0,0,.21-1V9.17Zm8.88,2.94v3.95h-2V12.42a1.76,1.76,0,0,0-.37-1.23,1.33,1.33,0,0,0-1-.39,1.84,1.84,0,0,0-.85.2,1.46,1.46,0,0,0-.58.6,2.15,2.15,0,0,0-.22,1.05v3.41h-2V9.17h1.92V10a2.72,2.72,0,0,1,.7-.54,3.48,3.48,0,0,1,3,0,2.25,2.25,0,0,1,1,1A3.53,3.53,0,0,1,91.6,12.11Zm7-2.3a3.69,3.69,0,0,0-2.45-.74,6.3,6.3,0,0,0-1.61.21,4.15,4.15,0,0,0-1.36.62l.71,1.39a3.24,3.24,0,0,1,.91-.46,3.41,3.41,0,0,1,1.09-.18A1.71,1.71,0,0,1,97.1,11a1.27,1.27,0,0,1,.39,1v0H95.92a4.85,4.85,0,0,0-1.72.25A1.83,1.83,0,0,0,93,14.07a1.83,1.83,0,0,0,.31,1.06,2.12,2.12,0,0,0,.89.75,3.07,3.07,0,0,0,1.37.28A2.82,2.82,0,0,0,97,15.81a1.81,1.81,0,0,0,.62-.61v.86h1.87V12.13A2.9,2.9,0,0,0,98.62,9.81Zm-1.7,4.78a1.81,1.81,0,0,1-.91.23,1.35,1.35,0,0,1-.82-.23.72.72,0,0,1-.3-.61.71.71,0,0,1,.27-.57,1.43,1.43,0,0,1,1-.23h1.37v.7A1.27,1.27,0,0,1,96.92,14.59Zm8.65-5.52v1.85l-.23,0-.21,0a1.85,1.85,0,0,0-1.34.48,1.92,1.92,0,0,0-.5,1.46v3.25h-2V9.17h1.91v.9a2.23,2.23,0,0,1,.71-.62A3.31,3.31,0,0,1,105.57,9.07Zm3.55,7.09a6.75,6.75,0,0,1-1.69-.21,4.6,4.6,0,0,1-1.29-.53l.65-1.42a5.42,5.42,0,0,0,1.14.46,4.35,4.35,0,0,0,1.27.19,2.09,2.09,0,0,0,1-.17.51.51,0,0,0,.29-.46.39.39,0,0,0-.23-.36,1.88,1.88,0,0,0-.58-.19l-.82-.13a7,7,0,0,1-.89-.18,3.41,3.41,0,0,1-.82-.32,1.67,1.67,0,0,1-.6-.58,1.84,1.84,0,0,1-.22-1,1.9,1.9,0,0,1,.38-1.16,2.51,2.51,0,0,1,1.09-.79,4.55,4.55,0,0,1,1.7-.28,6.42,6.42,0,0,1,1.44.16,4.45,4.45,0,0,1,1.22.44l-.67,1.42a3.67,3.67,0,0,0-1-.4,4.64,4.64,0,0,0-1-.11,2.07,2.07,0,0,0-1,.18.54.54,0,0,0-.31.46.43.43,0,0,0,.23.39,1.84,1.84,0,0,0,.6.2l.82.13a8.74,8.74,0,0,1,.89.17,3.62,3.62,0,0,1,.81.33,1.67,1.67,0,0,1,.6.58,1.84,1.84,0,0,1,.22,1A1.75,1.75,0,0,1,112,15.1a2.52,2.52,0,0,1-1.11.78A4.78,4.78,0,0,1,109.12,16.16Zm12-.1h-2.42l-2.16-2.69-1,.94v1.75h-2V6.56h2v5.37l2.91-2.76h2.39L118,12.09Zm6-6.25a3.67,3.67,0,0,0-2.44-.74,6.32,6.32,0,0,0-1.62.21,4.1,4.1,0,0,0-1.35.62l.7,1.39a3.57,3.57,0,0,1,2-.64,1.69,1.69,0,0,1,1.19.37,1.27,1.27,0,0,1,.4,1v0h-1.58a4.85,4.85,0,0,0-1.72.25,1.83,1.83,0,0,0-1.25,1.79,1.91,1.91,0,0,0,.31,1.06,2.12,2.12,0,0,0,.89.75,3.07,3.07,0,0,0,1.37.28,2.88,2.88,0,0,0,1.49-.35,1.81,1.81,0,0,0,.61-.62v.87H128V12.13A2.9,2.9,0,0,0,127.13,9.81Zm-1.69,4.78a1.87,1.87,0,0,1-.92.23,1.3,1.3,0,0,1-.81-.23.72.72,0,0,1-.3-.61.7.7,0,0,1,.26-.57,1.45,1.45,0,0,1,1-.23H126v.7A1.36,1.36,0,0,1,125.44,14.59Z"/><path id="DarkStyle_textG" class="cls-1" d="M56.12,23.92v.87a2.21,2.21,0,0,0-.74-.62,3.17,3.17,0,0,0-1.55-.35,3.58,3.58,0,0,0-1.72.41,3.12,3.12,0,0,0-1.24,1.15,3.28,3.28,0,0,0-.46,1.76,3.19,3.19,0,0,0,1.7,2.92,3.7,3.7,0,0,0,1.72.41,3.17,3.17,0,0,0,1.55-.36,2.19,2.19,0,0,0,.65-.52v.32a1.84,1.84,0,0,1-.49,1.4,2.09,2.09,0,0,1-1.53.48,4.41,4.41,0,0,1-1.34-.21A3.43,3.43,0,0,1,51.56,31l-.79,1.44a4,4,0,0,0,1.5.71,7.34,7.34,0,0,0,1.88.24A4.06,4.06,0,0,0,57,32.47a3.63,3.63,0,0,0,1-2.82V23.92ZM55.81,28a1.68,1.68,0,0,1-.64.6,2,2,0,0,1-.93.21,2.05,2.05,0,0,1-.93-.21,1.64,1.64,0,0,1-.65-.6,1.67,1.67,0,0,1-.24-.89,1.62,1.62,0,0,1,.24-.89,1.53,1.53,0,0,1,.65-.58,2,2,0,0,1,.93-.2,2,2,0,0,1,.93.2,1.56,1.56,0,0,1,.64.58,1.71,1.71,0,0,1,.23.89A1.76,1.76,0,0,1,55.81,28Zm8.32-4.21v1.85l-.22,0H63.7a1.91,1.91,0,0,0-1.35.47,2,2,0,0,0-.5,1.46V30.8h-2V23.92h1.9v.9a2.19,2.19,0,0,1,.72-.63A3.35,3.35,0,0,1,64.13,23.82Zm6,.74a3.61,3.61,0,0,0-2.44-.74A6.32,6.32,0,0,0,66,24a4,4,0,0,0-1.35.62L65.39,26a3,3,0,0,1,.91-.46,3.31,3.31,0,0,1,1.08-.18,1.72,1.72,0,0,1,1.2.36,1.29,1.29,0,0,1,.39,1H67.39a4.73,4.73,0,0,0-1.71.26,2,2,0,0,0-1,.72,2,2,0,0,0-.3,1.07,1.86,1.86,0,0,0,.32,1.06,2.07,2.07,0,0,0,.89.75A3.19,3.19,0,0,0,67,30.9a2.75,2.75,0,0,0,1.48-.35,1.81,1.81,0,0,0,.62-.61v.86H71V26.87A2.86,2.86,0,0,0,70.09,24.56ZM68.4,29.33a1.77,1.77,0,0,1-.92.23,1.32,1.32,0,0,1-.81-.22.73.73,0,0,1-.3-.61.77.77,0,0,1,.26-.58,1.54,1.54,0,0,1,1-.23H69v.71A1.33,1.33,0,0,1,68.4,29.33Zm9.45-5.41V30.8h2V23.92ZM79.75,21a1.34,1.34,0,0,0-.9-.3,1.29,1.29,0,0,0-.91.32,1.08,1.08,0,0,0,0,1.59,1.29,1.29,0,0,0,.91.32,1.25,1.25,0,0,0,.9-.33,1.09,1.09,0,0,0,.35-.83A1,1,0,0,0,79.75,21Zm-4.79,3h1.76v1.54H75V30.8H73V25.61H72V24.07H73v-.31a2.51,2.51,0,0,1,.69-1.86,2.63,2.63,0,0,1,2-.7,3.44,3.44,0,0,1,.84.1,1.82,1.82,0,0,1,.68.26L76.67,23a1.41,1.41,0,0,0-.37-.18,1.54,1.54,0,0,0-.43-.06.92.92,0,0,0-.68.24,1.12,1.12,0,0,0-.23.77ZM89.25,30.8H86.83l-2.16-2.69-1,.95V30.8h-2V21.31h2v5.37l2.93-2.76H89l-2.86,2.91Zm6-6.24a3.64,3.64,0,0,0-2.45-.74,6.3,6.3,0,0,0-1.61.21,4,4,0,0,0-1.36.62L90.53,26a3.11,3.11,0,0,1,.91-.46,3.41,3.41,0,0,1,1.09-.18,1.71,1.71,0,0,1,1.19.36,1.29,1.29,0,0,1,.39,1H92.54a4.73,4.73,0,0,0-1.71.26,1.91,1.91,0,0,0-1,.72,1.94,1.94,0,0,0-.3,1.07,1.86,1.86,0,0,0,.31,1.06,2.2,2.2,0,0,0,.89.75,3.22,3.22,0,0,0,1.37.27,2.79,2.79,0,0,0,1.49-.35,1.75,1.75,0,0,0,.61-.6v.85h1.87V26.87A2.86,2.86,0,0,0,95.24,24.56Zm-1.7,4.77a1.71,1.71,0,0,1-.91.23,1.37,1.37,0,0,1-.82-.22.76.76,0,0,1-.3-.61.74.74,0,0,1,.27-.58,1.51,1.51,0,0,1,1-.23h1.36v.71A1.25,1.25,0,0,1,93.54,29.33Z"/></svg>