<svg id="Layer_1" data-name="Layer 1" xmlns="http://www.w3.org/2000/svg" viewBox="0 0 128 128"><defs><style>.cls-1{fill:#fff;}</style></defs><title>logoForm_white</title><path class="cls-1" d="M108.2,3.19,98.08,13.56H19.22a5,5,0,0,0-5,5V124.81H0V3.19Z"/><path class="cls-1" d="M119,29.8a30.55,30.55,0,0,0-21.06-8.44H22.72a.7.7,0,0,0-.71.71v9.66h76.1c10.23,0,18.79,7.75,19.48,17.67a19.05,19.05,0,0,1-19,20.42H39.3a3.11,3.11,0,0,1-3.1-3.1V42.39H22v82.42H36.2V80.19H98.58a29.41,29.41,0,0,0,29.41-30A29,29,0,0,0,119,29.8Z"/></svg>