<svg id="Layer_1" data-name="Layer 1" xmlns="http://www.w3.org/2000/svg" viewBox="0 0 128 39.34"><defs><style>.cls-1{fill:#fff;}</style></defs><title>logotypeForm_white</title><path class="cls-1" d="M35,0,31.72,3.36H6.22A1.62,1.62,0,0,0,4.59,5V39.34H0V0Z"/><path class="cls-1" d="M38.47,8.61a9.88,9.88,0,0,0-6.81-2.73H7.35a.23.23,0,0,0-.23.23V9.23H31.73A6.25,6.25,0,0,1,38,15a6.16,6.16,0,0,1-6.14,6.6H12.71a1,1,0,0,1-1-1V12.68H7.12V39.34h4.59V24.91H31.89a9.45,9.45,0,0,0,6.58-16.3Z"/><path id="DarkStyle_textR" class="cls-1" d="M64,13.39a2.48,2.48,0,0,0,1.1-.9A2.63,2.63,0,0,0,65.55,11a2.62,2.62,0,0,0-.41-1.45A2.67,2.67,0,0,0,64,8.62a4.7,4.7,0,0,0-1.8-.33H58.91V16h1.51V13.73h2L64,16h1.55l-1.8-2.61Zm-1.92-.77h-1.7V9.43h1.7a2.15,2.15,0,0,1,1.41.41A1.46,1.46,0,0,1,64,11a1.48,1.48,0,0,1-.5,1.19A2.17,2.17,0,0,1,62.12,12.62Zm9.52-1.93a3.21,3.21,0,0,0-2.09-.62,5.56,5.56,0,0,0-1.41.18,3.48,3.48,0,0,0-1,.44l.46.91a3.45,3.45,0,0,1,.7-.31,3,3,0,0,1,1-.17,1.78,1.78,0,0,1,1.2.37,1.38,1.38,0,0,1,.42,1v.2H69.31a4,4,0,0,0-1.48.23,1.46,1.46,0,0,0-.77.58,1.65,1.65,0,0,0-.24.85,1.69,1.69,0,0,0,.25.86,1.71,1.71,0,0,0,.74.6,2.48,2.48,0,0,0,1.15.24,2.42,2.42,0,0,0,1.24-.29,1.6,1.6,0,0,0,.49-.48l.35-.59V16h1.31V12.64A2.47,2.47,0,0,0,71.64,10.69Zm-.73,3.59a1.38,1.38,0,0,1-.59.75,1.87,1.87,0,0,1-.92.23,1.38,1.38,0,0,1-.85-.24.83.83,0,0,1-.34-.71.84.84,0,0,1,.29-.66,1.52,1.52,0,0,1,1-.25h1.43Zm7.17.48a1.89,1.89,0,0,1-1.79,0,1.61,1.61,0,0,1-.66-.66,2,2,0,0,1-.24-1,2,2,0,0,1,.24-1,1.65,1.65,0,0,1,.66-.65,1.84,1.84,0,0,1,1.79,0,1.71,1.71,0,0,1,.59.55l1.07-.59a2.14,2.14,0,0,0-.9-.91,3.17,3.17,0,0,0-1.63-.39,3.46,3.46,0,0,0-1.69.39,3,3,0,0,0-1.15,1.06,3.09,3.09,0,0,0,0,3.11,2.8,2.8,0,0,0,1.15,1.06,3.57,3.57,0,0,0,1.69.4,3.15,3.15,0,0,0,1.63-.4,2.14,2.14,0,0,0,.89-.9l-1.06-.59A1.74,1.74,0,0,1,78.08,14.76Zm0-7.06L77,8.62,75.91,7.7h-.82L76.27,9H77.7L78.88,7.7Zm7.64,2.46v2.9a2.35,2.35,0,0,1-.2,1,1.49,1.49,0,0,1-.6.64,1.57,1.57,0,0,1-.82.21A1.4,1.4,0,0,1,83,14.49a1.84,1.84,0,0,1-.38-1.29v-3H81.21v3.32A3.16,3.16,0,0,0,81.52,15a2,2,0,0,0,.86.83,2.8,2.8,0,0,0,1.3.29,2.76,2.76,0,0,0,1.23-.3,2.08,2.08,0,0,0,.55-.47l.34-.41V16h1.32V10.16Zm9.12,1a2,2,0,0,0-.83-.82,2.76,2.76,0,0,0-1.24-.27,2.88,2.88,0,0,0-1.34.31,2.57,2.57,0,0,0-.58.45l-.32.36v-1H89.17V16h1.42V13.11a2.16,2.16,0,0,1,.21-1,1.54,1.54,0,0,1,.61-.63,1.76,1.76,0,0,1,.86-.2,1.39,1.39,0,0,1,1.07.41,1.76,1.76,0,0,1,.39,1.24V16h1.41V12.62A3.13,3.13,0,0,0,94.83,11.16Zm6.71-.47a3.17,3.17,0,0,0-2.08-.62,5.7,5.7,0,0,0-1.42.18,3.53,3.53,0,0,0-1,.44l.47.91a3.13,3.13,0,0,1,.69-.31,3,3,0,0,1,1-.17,1.79,1.79,0,0,1,1.21.37,1.41,1.41,0,0,1,.41,1v.2H99.22a4,4,0,0,0-1.48.23,1.5,1.5,0,0,0-.77.58,1.55,1.55,0,0,0-.23.85,1.59,1.59,0,0,0,.24.86,1.74,1.74,0,0,0,.73.6,2.57,2.57,0,0,0,1.15.24,2.32,2.32,0,0,0,1.24-.29,1.54,1.54,0,0,0,.5-.48l.35-.59V16h1.31V12.64A2.48,2.48,0,0,0,101.54,10.69Zm-.72,3.59a1.38,1.38,0,0,1-.59.75,1.87,1.87,0,0,1-.92.23,1.43,1.43,0,0,1-.86-.24.89.89,0,0,1,0-1.37,1.52,1.52,0,0,1,1-.25h1.43Zm5.72-3.9a1.94,1.94,0,0,0-.59.52l-.34.46v-1.2h-1.34V16h1.42V13.26a2,2,0,0,1,.5-1.47,2,2,0,0,1,1.35-.48l.21,0V10.07A2.64,2.64,0,0,0,106.54,10.38Zm7.18,3.17a1.35,1.35,0,0,0-.48-.47,2.68,2.68,0,0,0-.68-.27,5.5,5.5,0,0,0-.77-.15l-.75-.12a1.81,1.81,0,0,1-.61-.21.55.55,0,0,1-.3-.51.67.67,0,0,1,.36-.58,2,2,0,0,1,1-.19,4.22,4.22,0,0,1,.91.1,4.07,4.07,0,0,1,.76.28l.45-.93a4.3,4.3,0,0,0-.88-.3,5.12,5.12,0,0,0-2.73.1,2.1,2.1,0,0,0-.9.65,1.53,1.53,0,0,0-.32.94,1.3,1.3,0,0,0,.65,1.23,3.91,3.91,0,0,0,.7.27,7.72,7.72,0,0,0,.78.16c.27,0,.52.07.74.12a1.79,1.79,0,0,1,.59.18.56.56,0,0,1,.3.5.63.63,0,0,1-.35.57,1.89,1.89,0,0,1-1,.18,3.93,3.93,0,0,1-1.2-.18,4.44,4.44,0,0,1-.89-.33l-.43.94a4.26,4.26,0,0,0,1,.38,5.94,5.94,0,0,0,1.48.18,4.25,4.25,0,0,0,1.52-.24,2.12,2.12,0,0,0,.91-.64,1.53,1.53,0,0,0,.14-1.66Zm5.21-1,2.38-2.43h-1.62l-2.9,2.74V7.8h-1.42V16h1.42V14.53l1.09-1,2,2.52h1.69Zm8.35-1.9a3.11,3.11,0,0,0-2.08-.62,5.7,5.7,0,0,0-1.42.18,3.65,3.65,0,0,0-1,.44l.46.91a3.22,3.22,0,0,1,.7-.31,3,3,0,0,1,1-.17,1.78,1.78,0,0,1,1.2.37,1.36,1.36,0,0,1,.42,1v.2H125a3.94,3.94,0,0,0-1.47.23,1.46,1.46,0,0,0-.77.58,1.48,1.48,0,0,0-.24.85,1.52,1.52,0,0,0,.25.86,1.65,1.65,0,0,0,.72.6,2.55,2.55,0,0,0,1.16.24,2.37,2.37,0,0,0,1.24-.29,1.43,1.43,0,0,0,.49-.49l.36-.6V16H128V12.64A2.44,2.44,0,0,0,127.28,10.69Zm-.71,3.6A1.43,1.43,0,0,1,126,15a1.81,1.81,0,0,1-.91.23,1.43,1.43,0,0,1-.86-.24.87.87,0,0,1-.34-.71.89.89,0,0,1,.3-.66,1.52,1.52,0,0,1,1-.25h1.43Z"/><path id="DarkStyle_textG" class="cls-1" d="M63.49,23.47v1.16l-.35-.45a1.87,1.87,0,0,0-.6-.51,2.7,2.7,0,0,0-1.31-.29,3.12,3.12,0,0,0-1.46.35,2.68,2.68,0,0,0-1.06,1,3.09,3.09,0,0,0,0,3,2.8,2.8,0,0,0,1.06,1,3.12,3.12,0,0,0,1.46.35,2.81,2.81,0,0,0,1.31-.3,2.18,2.18,0,0,0,.54-.43l.33-.38v.78a1.87,1.87,0,0,1-.51,1.42,2.07,2.07,0,0,1-1.52.48,4.09,4.09,0,0,1-1.25-.2,3.49,3.49,0,0,1-.89-.42l-.53,1a3.41,3.41,0,0,0,1.16.51,6.47,6.47,0,0,0,1.64.21A3.48,3.48,0,0,0,64,30.86a3.08,3.08,0,0,0,.84-2.4v-5Zm-.31,3.62a1.76,1.76,0,0,1-.65.62,2.26,2.26,0,0,1-1.86,0,1.79,1.79,0,0,1-.66-.62,1.68,1.68,0,0,1-.24-.9,1.66,1.66,0,0,1,.24-.9,1.57,1.57,0,0,1,.66-.59,2,2,0,0,1,.93-.21,2,2,0,0,1,.93.21,1.61,1.61,0,0,1,.65.59,1.81,1.81,0,0,1,0,1.8Zm5.95-3.39a1.59,1.59,0,0,0-.58.51l-.34.46v-1.2H66.86v5.84h1.42V26.56a2,2,0,0,1,.51-1.45,1.86,1.86,0,0,1,1.34-.48h.21V23.39A2.6,2.6,0,0,0,69.13,23.7Zm6.66.3a3.17,3.17,0,0,0-2.08-.62,5.28,5.28,0,0,0-1.42.19,3.64,3.64,0,0,0-1,.43l.46.92a3.46,3.46,0,0,1,.7-.32,3.29,3.29,0,0,1,1-.18,1.73,1.73,0,0,1,1.2.39,1.32,1.32,0,0,1,.41,1V26H73.47a4.18,4.18,0,0,0-1.47.22,1.52,1.52,0,0,0-.77.57,1.5,1.5,0,0,0-.24.87,1.56,1.56,0,0,0,.24.85,1.89,1.89,0,0,0,.74.61,2.62,2.62,0,0,0,1.15.23,2.42,2.42,0,0,0,1.24-.29,1.46,1.46,0,0,0,.49-.5L75.2,28v1.29h1.3V26A2.45,2.45,0,0,0,75.79,24Zm-.72,3.6a1.31,1.31,0,0,1-.59.73,1.81,1.81,0,0,1-.93.24,1.31,1.31,0,0,1-.84-.25.79.79,0,0,1-.35-.69.87.87,0,0,1,.3-.67,1.51,1.51,0,0,1,1-.25h1.43Zm8-4.13v5.84h1.42V23.47Zm1.41-2.65a1.05,1.05,0,0,0-.7-.23,1,1,0,0,0-.69.24.8.8,0,0,0,0,1.16,1,1,0,0,0,.69.24A1,1,0,0,0,84.5,22a.83.83,0,0,0,.25-.62A.66.66,0,0,0,84.51,20.82Zm-4.13,1.53a1,1,0,0,1,.75-.29,2.12,2.12,0,0,1,.43.06l.18.08.35-1a2,2,0,0,0-.43-.14A3.36,3.36,0,0,0,81,21a2.22,2.22,0,0,0-1.65.57,2.08,2.08,0,0,0-.57,1.55v.47h-1v1h1v4.69h1.44V24.62H81.7v-1H80.12v-.44A1.11,1.11,0,0,1,80.38,22.35Zm9.75,3.54,2.39-2.42H90.9L88,26.21v-5.1H86.58v8.2H88V27.84l1.08-1.05,2,2.52h1.7ZM98.49,24a3.18,3.18,0,0,0-2.09-.62,5.14,5.14,0,0,0-1.4.19A3.43,3.43,0,0,0,94,24l.46.92a3.46,3.46,0,0,1,.7-.32,3.18,3.18,0,0,1,1-.18,1.76,1.76,0,0,1,1.21.39,1.36,1.36,0,0,1,.42,1V26H96.18a4.2,4.2,0,0,0-1.48.22,1.56,1.56,0,0,0-.77.57,1.58,1.58,0,0,0-.25.87,1.5,1.5,0,0,0,.26.85,1.77,1.77,0,0,0,.73.61,2.6,2.6,0,0,0,1.14.23,2.41,2.41,0,0,0,1.25-.29,1.56,1.56,0,0,0,.5-.49l.35-.57v1.26h1.3V26A2.4,2.4,0,0,0,98.49,24Zm-.72,3.6a1.27,1.27,0,0,1-.59.73,1.75,1.75,0,0,1-.92.24,1.34,1.34,0,0,1-.85-.25.83.83,0,0,1-.35-.69.88.88,0,0,1,.31-.67,1.47,1.47,0,0,1,1-.25h1.43Z"/></svg>